<svg id="visual" viewBox="0 0 900 675" width="900" height="675" xmlns="http://www.w3.org/2000/svg" xmlns:xlink="http://www.w3.org/1999/xlink" version="1.1"><rect x="0" y="0" width="900" height="675" fill="#00425A"></rect><path d="M0 359L37.5 401C75 443 150 527 225 569.2C300 611.3 375 611.7 450 584.2C525 556.7 600 501.3 675 497C750 492.7 825 539.3 862.5 562.7L900 586L900 676L862.5 676C825 676 750 676 675 676C600 676 525 676 450 676C375 676 300 676 225 676C150 676 75 676 37.5 676L0 676Z" fill="#1F8A70" stroke-linecap="round" stroke-linejoin="miter"></path></svg>