<svg xmlns="http://www.w3.org/2000/svg" version="1.1" xmlnsXlink="http://www.w3.org/1999/xlink" xmlnsSvgjs="http://svgjs.dev/svgjs" width="900" height="675" preserveAspectRatio="none" viewBox="0 0 900 675"><g mask="url(&quot;#SvgjsMask1097&quot;)" fill="none"><rect width="900" height="675" x="0" y="0" fill="#0A4D68"></rect><path d="M -320.34353915322276,557.5 C -260.34,462.9 -140.34,87.3 -20.34353915322278,84.5 C 99.66,81.7 159.66,514.9 279.65646084677724,543.5 C 399.66,572.1 459.66,267.9 579.6564608467772,227.5 C 699.66,187.1 815.59,320.1 879.6564608467772,341.5 C 943.73,362.9 895.93,335.9 900,334.5" stroke="#088395" strokeWidth="2"></path><path d="M -372.7787109496852,277.5 C -312.78,292.5 -192.78,348.5 -72.77871094968522,352.5 C 47.22,356.5 107.22,265.5 227.2212890503148,297.5 C 347.22,329.5 407.22,520.1 527.2212890503148,512.5 C 647.22,504.9 752.67,272.9 827.2212890503148,259.5 C 901.78,246.1 885.44,408.3 900,445.5" stroke="#088395" strokeWidth="2"></path><path d="M -490.1310434164866,387.5 C -430.13,350.1 -310.13,186.7 -190.1310434164866,200.5 C -70.13,214.3 -10.13,464.1 109.86895658351341,456.5 C 229.87,448.9 289.87,173.3 409.8689565835134,162.5 C 529.87,151.7 611.84,416.3 709.8689565835134,402.5 C 807.9,388.7 861.97,155.3 900,93.5" stroke="#088395" strokeWidth="2"></path><path d="M -453.994100588194,257.5 C -393.99,296.3 -273.99,438.5 -153.99410058819396,451.5 C -33.99,464.5 26.01,315.1 146.00589941180604,322.5 C 266.01,329.9 326.01,514.5 446.005899411806,488.5 C 566.01,462.5 655.21,202.7 746.005899411806,192.5 C 836.8,182.3 869.2,388.5 900,437.5" stroke="rgba(217, 220, 214, 1)" strokeWidth="2"></path></g><defs><mask id="SvgjsMask1097"><rect width="900" height="675" fill="#ffffff"></rect></mask></defs></svg>